<?xml version="1.0" encoding="utf-8"?>
<svg version="1.1" id="Layer_1" xmlns="http://www.w3.org/2000/svg" xmlns:xlink="http://www.w3.org/1999/xlink" x="0px" y="0px"
	 viewBox="96 156 550 250" xml:space="preserve">
<g id="Layer_2">
</g>
<g id="Layer_1_copy">
</g>
<g>
	<g>
		<g>
			<path fill="none" d="M184.1,336L184.1,336L184.1,336z"/>
			<path fill="none" d="M184.1,276L184.1,276L184.1,276z"/>
			<path fill="none" d="M288,336L288,336L288,336z"/>
			<path d="M236.1,306L236.1,306L236.1,306z"/>
			<path d="M236.1,306L236.1,306L236.1,306z"/>
			<path d="M236.1,306L236.1,306L236.1,306z"/>
		</g>
		<g>
			<polygon fill="#00376E" points="184.1,336 236.1,366 210.1,321 			"/>
			<polygon fill="#0066CC" points="236.1,246 220.5,255 184.1,276 210.1,321 236.1,366 288,336 			"/>
		</g>
		<path fill="#F04E5A" d="M249.7,291.7"/>
		<polyline opacity="0.2" fill="#00376E" points="275.3,314 184.1,276 184.1,276 236.1,246 		"/>
		<polygon fill="#00376E" points="236.1,246 184.1,276 236.1,306 236.1,306 288,276 		"/>
	</g>
	<g>
		<path fill="#00376E" d="M317.9,299.8c1.4,0.7,3.7,1.4,6.7,2.1c3,0.8,5.5,1.5,7.4,2.3s3.5,1.9,4.9,3.5c1.4,1.6,2,3.7,2,6.4
			c0,3.3-1.3,6-3.9,8.2c-2.6,2.1-6.2,3.2-11,3.2c-5.1,0-9.8-1.1-14-3.4c-0.9-0.6-1.3-1.5-1.3-2.5c0-0.8,0.3-1.5,0.8-2.1
			s1.3-0.9,2.1-0.9c0.5,0,0.9,0.1,1.4,0.3c1.6,0.7,3.3,1.3,4.9,1.7c1.6,0.4,3.5,0.6,5.5,0.6c5.7,0,8.5-1.8,8.5-5.5
			c0-1.2-0.7-2.1-2-2.7c-1.3-0.6-3.4-1.3-6.4-2.1c-3-0.7-5.5-1.5-7.5-2.2c-2-0.8-3.7-1.9-5.1-3.5c-1.4-1.6-2.1-3.6-2.1-6.2
			c0-3.6,1.3-6.5,3.9-8.8c2.6-2.2,6.3-3.4,11.1-3.4c3.9,0,7.7,0.7,11.1,1.9c0.7,0.2,1.3,0.6,1.7,1.1s0.6,1.1,0.6,1.8
			c0,0.8-0.3,1.5-0.9,2.1c-0.6,0.6-1.3,0.9-2.2,0.9c-0.3,0-0.6-0.1-1-0.2c-3-0.9-5.9-1.4-8.8-1.4c-2.8,0-4.9,0.5-6.5,1.5
			c-1.6,1-2.3,2.3-2.3,3.9C315.7,297.9,316.5,299,317.9,299.8z"/>
		<path fill="#00376E" d="M368.8,319.3c0.6,0.6,0.8,1.2,0.8,2c0,1.2-0.6,2.1-1.8,2.7c-2,0.9-4.1,1.4-6.4,1.4
			c-7.5,0-11.2-3.4-11.2-10.1v-23.8h-5.5c-0.4,0-0.7-0.1-1-0.4c-0.3-0.3-0.4-0.6-0.4-1c0-0.5,0.2-0.9,0.7-1.3l10.5-10.2
			c0.5-0.5,0.9-0.7,1.3-0.7c0.4,0,0.7,0.2,1,0.5c0.3,0.3,0.4,0.7,0.4,1.1v6.1h8.7c0.9,0,1.6,0.3,2.1,0.8s0.8,1.3,0.8,2.1
			c0,0.8-0.3,1.5-0.8,2.1c-0.6,0.6-1.3,0.9-2.1,0.9h-8.7v23.2c0,2,0.5,3.3,1.4,3.8c0.9,0.6,2.1,0.8,3.6,0.8c1,0,2-0.2,3.1-0.5
			c0.2-0.1,0.4-0.1,0.7-0.2c0.2-0.1,0.5-0.1,0.9-0.1C367.6,318.5,368.2,318.8,368.8,319.3z"/>
		<path fill="#00376E" d="M409.4,316.9c0.6,0.6,0.9,1.3,0.9,2.1c0,1.1-0.7,2.1-2,2.9c-2,1.1-4,2-5.9,2.5c-2,0.6-4.5,0.8-7.5,0.8
			c-6.2,0-11.1-1.8-14.7-5.3c-3.5-3.6-5.3-8.6-5.3-15c0-3.6,0.7-7,2-10.1c1.3-3.1,3.4-5.6,6.1-7.4c2.8-1.9,6.2-2.9,10.2-2.9
			c3.8,0,7.1,0.9,9.8,2.7s4.9,4.1,6.3,7.1s2.1,6.2,2.1,9.7c0,1-0.3,1.8-1,2.5c-0.7,0.7-1.5,1-2.6,1H382c0.4,3.6,1.8,6.4,4,8.4
			c2.2,2,5.4,3,9.5,3c2.1,0,4-0.2,5.7-0.6c1.6-0.4,3.2-1,4.7-1.8c0.4-0.2,0.9-0.3,1.4-0.3C408.1,316.1,408.8,316.4,409.4,316.9z
			 M388.2,291.7c-1.7,0.8-3.1,2-4.2,3.7c-1.1,1.7-1.8,3.8-1.9,6.3h22.7c-0.2-2.5-0.8-4.6-2-6.3s-2.6-2.9-4.3-3.7
			c-1.7-0.8-3.4-1.2-5.1-1.2C391.6,290.5,389.9,290.9,388.2,291.7z"/>
		<path fill="#00376E" d="M453.2,316.9c0.6,0.6,0.9,1.3,0.9,2.1c0,1.1-0.7,2.1-2,2.9c-2,1.1-4,2-5.9,2.5c-2,0.6-4.5,0.8-7.5,0.8
			c-6.2,0-11.1-1.8-14.7-5.3c-3.5-3.6-5.3-8.6-5.3-15c0-3.6,0.7-7,2-10.1c1.3-3.1,3.4-5.6,6.1-7.4c2.8-1.9,6.2-2.9,10.2-2.9
			c3.8,0,7.1,0.9,9.8,2.7s4.9,4.1,6.3,7.1s2.1,6.2,2.1,9.7c0,1-0.3,1.8-1,2.5c-0.7,0.7-1.5,1-2.6,1h-26.1c0.4,3.6,1.8,6.4,4,8.4
			c2.2,2,5.4,3,9.5,3c2.1,0,4-0.2,5.7-0.6c1.6-0.4,3.2-1,4.7-1.8c0.4-0.2,0.9-0.3,1.4-0.3C451.9,316.1,452.6,316.4,453.2,316.9z
			 M432,291.7c-1.7,0.8-3.1,2-4.2,3.7s-1.8,3.8-1.9,6.3h22.7c-0.2-2.5-0.8-4.6-2-6.3s-2.6-2.9-4.3-3.7c-1.7-0.8-3.4-1.2-5.1-1.2
			C435.4,290.5,433.7,290.9,432,291.7z"/>
		<path fill="#00376E" d="M471.5,269.1c0.7,0.7,1,1.5,1,2.5v49.9c0,1-0.4,1.8-1,2.5c-0.7,0.7-1.5,1-2.5,1c-1,0-1.8-0.3-2.5-1
			c-0.7-0.7-1-1.5-1-2.5v-49.9c0-1,0.3-1.8,1-2.5c0.7-0.7,1.5-1,2.5-1C470,268.1,470.8,268.4,471.5,269.1z"/>
		<path fill="#00376E" d="M506.3,319.3c0.6,0.6,0.8,1.2,0.8,2c0,1.2-0.6,2.1-1.8,2.7c-2,0.9-4.1,1.4-6.4,1.4
			c-7.5,0-11.2-3.4-11.2-10.1v-23.8h-5.5c-0.4,0-0.7-0.1-1-0.4c-0.3-0.3-0.4-0.6-0.4-1c0-0.5,0.2-0.9,0.7-1.3l10.5-10.2
			c0.5-0.5,0.9-0.7,1.3-0.7c0.4,0,0.7,0.2,1,0.5c0.3,0.3,0.4,0.7,0.4,1.1v6.1h8.7c0.9,0,1.6,0.3,2.1,0.8c0.6,0.6,0.8,1.3,0.8,2.1
			c0,0.8-0.3,1.5-0.8,2.1c-0.6,0.6-1.3,0.9-2.1,0.9h-8.7v23.2c0,2,0.5,3.3,1.4,3.8c0.9,0.6,2.1,0.8,3.6,0.8c1,0,2-0.2,3.1-0.5
			c0.2-0.1,0.4-0.1,0.7-0.2c0.2-0.1,0.5-0.1,0.9-0.1C505.1,318.5,505.8,318.8,506.3,319.3z"/>
		<path fill="#00376E" d="M542.4,287.1c3,1.7,5.3,4.1,6.9,7.2c1.6,3.1,2.5,6.7,2.5,10.7c0,4-0.8,7.5-2.5,10.7
			c-1.6,3.1-3.9,5.5-6.9,7.2c-3,1.7-6.4,2.5-10.3,2.5c-3.9,0-7.4-0.8-10.4-2.5s-5.3-4.1-6.9-7.2c-1.6-3.1-2.4-6.7-2.4-10.7
			c0-4,0.8-7.5,2.4-10.7c1.6-3.1,3.9-5.5,6.9-7.2c3-1.7,6.4-2.5,10.4-2.5C536,284.6,539.4,285.4,542.4,287.1z M538.1,317.5
			c1.9-1,3.5-2.5,4.8-4.6c1.3-2.1,1.9-4.8,1.9-8c0-3.2-0.6-5.8-1.9-7.9s-2.9-3.6-4.8-4.6c-1.9-0.9-3.9-1.4-6-1.4
			c-2.1,0-4.2,0.5-6.1,1.4c-1.9,0.9-3.5,2.5-4.7,4.6c-1.2,2.1-1.9,4.7-1.9,7.9c0,3.2,0.6,5.9,1.9,8c1.2,2.1,2.8,3.6,4.7,4.6
			c1.9,1,4,1.5,6.1,1.5C534.2,319,536.2,318.5,538.1,317.5z"/>
		<path fill="#00376E" d="M593.7,316.9c0.6,0.6,0.9,1.3,0.9,2.1c0,1.1-0.7,2.1-2,2.9c-2,1.1-4,2-5.9,2.5s-4.5,0.8-7.5,0.8
			c-6.2,0-11.1-1.8-14.7-5.3c-3.5-3.6-5.3-8.6-5.3-15c0-3.6,0.7-7,2-10.1c1.3-3.1,3.4-5.6,6.1-7.4s6.2-2.9,10.2-2.9
			c3.8,0,7.1,0.9,9.8,2.7s4.9,4.1,6.3,7.1s2.1,6.2,2.1,9.7c0,1-0.3,1.8-1,2.5s-1.5,1-2.6,1h-26.1c0.4,3.6,1.8,6.4,4,8.4
			c2.2,2,5.4,3,9.5,3c2.1,0,4-0.2,5.7-0.6c1.6-0.4,3.2-1,4.7-1.8c0.4-0.2,0.9-0.3,1.4-0.3C592.3,316.1,593.1,316.4,593.7,316.9z
			 M572.4,291.7c-1.7,0.8-3.1,2-4.2,3.7c-1.1,1.7-1.8,3.8-1.9,6.3H589c-0.2-2.5-0.8-4.6-2-6.3c-1.1-1.7-2.6-2.9-4.3-3.7
			c-1.7-0.8-3.4-1.2-5.1-1.2C575.9,290.5,574.1,290.9,572.4,291.7z"/>
		<g>
			<path fill="#00376E" d="M603.1,294.1c-2.6,0-4.7-2.1-4.7-4.7c0-2.6,2.1-4.7,4.7-4.7c2.6,0,4.7,2.1,4.7,4.7
				C607.9,292,605.8,294.1,603.1,294.1z M603.1,285.4c-2.2,0-4,1.8-4,4c0,2.2,1.8,4,4,4c2.2,0,4-1.8,4-4
				C607.2,287.2,605.3,285.4,603.1,285.4z M604.4,292.1L603,290h-0.9v2.1h-0.8v-5.4h2.2c0.9,0,1.8,0.6,1.8,1.7
				c0,1.2-1.1,1.6-1.4,1.6l1.5,2.2H604.4z M603.5,287.4h-1.5v1.9h1.5c0.5,0,1-0.4,1-0.9C604.5,287.7,604,287.4,603.5,287.4z"/>
		</g>
	</g>
</g>
</svg>
